<svg width="70" height="70" viewBox="0 0 70 70" fill="none" xmlns="http://www.w3.org/2000/svg">
<mask id="mask0_270_1573" style="mask-type:alpha" maskUnits="userSpaceOnUse" x="0" y="0" width="70" height="70">
<rect width="70" height="70" fill="#D9D9D9"/>
</mask>
<g mask="url(#mask0_270_1573)">
<path fill-rule="evenodd" clip-rule="evenodd" d="M61.9227 25.5366L57.0374 24.6888C61.7979 22.7723 64.5854 17.9759 63.3777 13.4449C62.4521 9.97186 59.3541 7.33113 55.7027 6.71679C54.1545 6.4563 52.5067 6.56018 50.8825 7.11955C47.3057 8.35078 44.3546 10.4257 41.9889 12.6419C41.9697 12.6598 41.9504 12.6775 41.9312 12.6952L41.93 12.6963C41.908 12.7166 41.886 12.7368 41.8641 12.7574C41.5009 13.1014 41.1538 13.4465 40.8191 13.7948C40.7813 13.8337 40.7435 13.8724 40.7057 13.911C40.6081 14.0107 40.5105 14.1104 40.4139 14.2134C40.306 14.3294 40.2038 14.4444 40.1013 14.5598L40.1012 14.5599C40.0656 14.6 40.0299 14.6401 39.994 14.6803C39.9287 14.7523 39.8633 14.8237 39.7979 14.8951C39.6133 15.0966 39.4288 15.2979 39.2478 15.5099C37.7795 11.6556 35.2678 7.11048 31.0153 3.77679C29.6637 2.71687 28.1407 2.07951 26.5924 1.81899C22.941 1.20466 19.1497 2.68627 17.1386 5.66521C14.9531 8.90181 15.3324 13.2171 17.7545 16.5165C18.2361 17.184 18.7953 17.815 19.44 18.3889L8.74041 16.5887L6.5121 29.8328C6.46719 30.0998 6.64716 30.3522 6.91384 30.3971L32.2461 34.6592L34.5408 21.0207L41.9085 22.2603L39.6138 35.8987L64.9462 40.1609C65.2129 40.2057 65.4653 40.026 65.5102 39.7591L67.7385 26.5151L61.9227 25.5366ZM31.5658 17.0007C28.6051 16.5025 26.0615 15.5465 24.006 14.1589C22.9657 13.4567 22.2118 12.428 21.9373 11.337C21.8128 10.8422 21.6841 9.89336 22.2217 9.09695C22.8518 8.16357 24.2622 7.64652 25.5752 7.86745C26.1814 7.96944 26.7383 8.21709 27.2311 8.60344C29.8441 10.6519 31.6127 13.3979 32.803 15.9916C32.9841 16.3963 33.1586 16.8097 33.3245 17.2362C32.7542 17.1782 32.1659 17.1016 31.5658 17.0007ZM56.9869 17.234C56.3704 18.1752 55.3213 18.9005 54.1086 19.2236C51.7122 19.8622 48.9958 19.9333 46.035 19.4351C45.5045 19.3458 44.9954 19.2372 44.4974 19.1231C44.4685 19.1149 44.4394 19.1076 44.4103 19.1004C44.3702 19.0903 44.3301 19.0803 44.2905 19.0679C46.3577 16.6833 49.237 14.1724 52.8789 12.9187C53.471 12.7148 54.0788 12.6632 54.685 12.7651C55.9978 12.986 57.161 13.9361 57.451 15.0243C57.6988 15.9527 57.2665 16.8072 56.9869 17.234ZM9.33709 56.9861C8.68321 60.8724 11.3037 64.5529 15.1899 65.2067L26.7763 67.1561L31.6167 38.3868L12.9936 35.2535L9.33709 56.9861ZM45.7377 70.3439L34.151 68.3945L38.9914 39.6252L57.6146 42.7585L53.9581 64.4911C53.3042 68.3775 49.6239 70.9978 45.7377 70.3439Z" fill="white"/>
</g>
</svg>
