<svg width="27" height="30" viewBox="0 0 27 30" fill="none" xmlns="http://www.w3.org/2000/svg">
<path d="M13.2266 14.998C17.0926 14.998 20.2266 11.864 20.2266 7.99805C20.2266 4.13205 17.0926 0.998047 13.2266 0.998047C9.36057 0.998047 6.22656 4.13205 6.22656 7.99805C6.22656 11.864 9.36057 14.998 13.2266 14.998Z" stroke="url(#paint0_linear_301_54)" stroke-width="2"/>
<path d="M20.2282 17.7949H20.721C21.7445 17.7952 22.7327 18.1692 23.4999 18.8467C24.2671 19.5242 24.7605 20.4585 24.8874 21.4741L25.4348 25.8477C25.484 26.2417 25.4489 26.6417 25.3318 27.0211C25.2146 27.4005 25.0181 27.7506 24.7553 28.0482C24.4925 28.3459 24.1694 28.5842 23.8074 28.7474C23.4454 28.9106 23.0529 28.995 22.6558 28.9949H3.80061C3.40355 28.995 3.011 28.9106 2.64903 28.7474C2.28707 28.5842 1.96395 28.3459 1.70114 28.0482C1.43832 27.7506 1.24181 27.4005 1.12466 27.0211C1.0075 26.6417 0.972374 26.2417 1.02161 25.8477L1.56761 21.4741C1.69459 20.458 2.18839 19.5233 2.95617 18.8458C3.72396 18.1682 4.71282 17.7945 5.73681 17.7949H6.22821" stroke="url(#paint1_linear_301_54)" stroke-width="2" stroke-linecap="round" stroke-linejoin="round"/>
<defs>
<linearGradient id="paint0_linear_301_54" x1="13.2266" y1="14.998" x2="13.2266" y2="0.998047" gradientUnits="userSpaceOnUse">
<stop stop-color="#538268"/>
<stop offset="1" stop-color="#71A28C"/>
</linearGradient>
<linearGradient id="paint1_linear_301_54" x1="13.2282" y1="28.9949" x2="13.2282" y2="17.7949" gradientUnits="userSpaceOnUse">
<stop stop-color="#386548"/>
<stop offset="1" stop-color="#518066"/>
</linearGradient>
</defs>
</svg>
