<svg width="31" height="27" viewBox="0 0 31 27" fill="none" xmlns="http://www.w3.org/2000/svg">
<path fill-rule="evenodd" clip-rule="evenodd" d="M6.39328 1.46252C8.27369 -0.417887 11.297 -0.497391 13.2736 1.28159L14.7476 2.60818L15.8637 1.49207C17.7591 -0.403295 20.8119 -0.466868 22.7845 1.34795L29.3458 7.3843C31.4598 9.32916 31.5042 12.6512 29.4429 14.6519L18.3081 25.4591C16.3475 27.3621 13.2223 27.3388 11.2902 25.4067L4.98715 19.1037C2.99498 17.1115 3.0413 13.8675 5.08957 11.9331L8.687 8.53548C10.4273 6.89187 13.1378 6.85931 14.917 8.46065L15.9589 9.39835C16.4011 9.79627 17.0773 9.77849 17.4979 9.35788C17.951 8.9048 17.9315 8.16442 17.4553 7.73577L11.9357 2.76817C10.7497 1.70079 8.93574 1.74849 7.80749 2.87674L2.75481 7.92941C2.06954 8.61469 1.84543 9.59936 2.10481 10.4804C2.26078 11.0102 2.21513 11.6411 1.78386 11.9862C1.3526 12.3312 0.711142 12.264 0.467543 11.7684C-0.379536 10.0448 -0.068033 7.92383 1.3406 6.5152L6.39328 1.46252ZM16.2363 3.94796L18.7932 6.24918C20.1212 7.44437 20.1755 9.50876 18.9121 10.7721C17.7394 11.9449 15.8538 11.9944 14.621 10.8849L13.5791 9.94724C12.5741 9.04277 11.0432 9.06116 10.0602 9.9895L6.46281 13.3871C5.45484 14.3391 5.25489 15.8196 5.87508 16.9807L10.3697 12.4862C10.7602 12.0956 11.3933 12.0956 11.7839 12.4862C12.1744 12.8767 12.1744 13.5098 11.7839 13.9004L7.19808 18.4862L8.78386 20.0719L13.8697 14.9862C14.2602 14.5956 14.8933 14.5956 15.2839 14.9862C15.6744 15.3767 15.6744 16.0098 15.2839 16.4004L10.1981 21.4862L11.7839 23.0719L16.8696 17.9862C17.2602 17.5956 17.8933 17.5956 18.2839 17.9862C18.6744 18.3767 18.6744 19.0098 18.2839 19.4004L13.2558 24.4284C14.3983 25.131 15.9112 24.9984 16.9152 24.0239L28.0499 13.2167C29.2867 12.0163 29.2601 10.0231 27.9917 8.85616L21.4304 2.81982C20.2469 1.73092 18.4152 1.76907 17.2779 2.90629L16.2363 3.94796Z" fill="url(#paint0_linear_301_60)"/>
<defs>
<linearGradient id="paint0_linear_301_60" x1="15.4803" y1="26.8712" x2="15.4803" y2="-0.00195312" gradientUnits="userSpaceOnUse">
<stop stop-color="#386548"/>
<stop offset="1" stop-color="#71A28C"/>
</linearGradient>
</defs>
</svg>
