<svg width="232" height="30" viewBox="0 0 232 30" fill="none" xmlns="http://www.w3.org/2000/svg">
<path fill-rule="evenodd" clip-rule="evenodd" d="M12.574 25.4783V21.287C10.2571 21.287 8.27787 20.472 6.63627 18.842C5.00631 17.2004 4.19133 15.2212 4.19133 12.9043C4.19133 10.5874 5.00631 8.61402 6.63627 6.98406C8.27787 5.34245 10.2571 4.52165 12.574 4.52165V0.330322C9.1045 0.330322 6.14146 1.55861 3.68488 4.0152C1.22829 6.47178 0 9.43482 0 12.9043C0 16.3738 1.22829 19.3368 3.68488 21.7934C6.14146 24.25 9.1045 25.4783 12.574 25.4783ZM31.7842 25.4783H27.5929V4.52165H19.2103V25.4783H15.0189V0.330322H31.7842V25.4783ZM37.9268 4.0152C35.4703 6.47178 34.242 9.43482 34.242 12.9043V25.4783H38.4333V21.287H55.1986V25.4783H59.3899V12.9043C59.3899 9.43482 58.1616 6.47178 55.7051 4.0152C53.2485 1.55861 50.2854 0.330322 46.8159 0.330322C43.3465 0.330322 40.3834 1.55861 37.9268 4.0152ZM55.1986 12.9043V17.0956H38.4333V12.9043C38.4333 10.5874 39.2483 8.61402 40.8782 6.98406C42.5198 5.34245 44.4991 4.52165 46.8159 4.52165C49.1328 4.52165 51.1062 5.34245 52.7362 6.98406C54.3778 8.61402 55.1986 10.5874 55.1986 12.9043ZM79.6562 21.287H82.7997V29.6696H78.6084V25.4783H66.0344V29.6696H61.8431V21.287H62.9084C63.7699 21.287 64.5093 20.9784 65.1263 20.3614C65.7317 19.756 66.0344 19.0167 66.0344 18.1435V0.330322H79.6562V21.287ZM69.5447 21.287H75.4649V4.52165H70.2258V18.1435C70.2258 19.2844 69.9987 20.3323 69.5447 21.287ZM88.9401 4.0152C86.4835 6.47178 85.2552 9.43482 85.2552 12.9043V25.4783H89.4465V21.287H106.212V25.4783H110.403V12.9043C110.403 9.43482 109.175 6.47178 106.718 4.0152C104.262 1.55861 101.299 0.330322 97.8292 0.330322C94.3597 0.330322 91.3967 1.55861 88.9401 4.0152ZM106.212 12.9043V17.0956H89.4465V12.9043C89.4465 10.5874 90.2615 8.61402 91.8915 6.98406C93.5331 5.34245 95.5123 4.52165 97.8292 4.52165C100.146 4.52165 102.119 5.34245 103.749 6.98406C105.391 8.61402 106.212 10.5874 106.212 12.9043ZM122.287 0.330322C124.313 0.330322 126.042 1.04634 127.474 2.47838C128.906 3.91042 129.622 5.63934 129.622 7.66515V9.76081C129.622 11.7866 128.906 13.5155 127.474 14.9476C126.042 16.3796 124.313 17.0956 122.287 17.0956H117.048V25.4783H112.856V0.330322H122.287ZM125.43 7.66515C125.43 6.79195 125.122 6.05265 124.505 5.44724C123.899 4.83018 123.16 4.52165 122.287 4.52165H117.048V12.9043H122.287C123.16 12.9043 123.899 12.6016 124.505 11.9962C125.122 11.3791 125.43 10.634 125.43 9.76081V7.66515ZM150.938 21.287H147.794V0.330322H134.172V18.1435C134.172 19.0167 133.87 19.756 133.264 20.3614C132.647 20.9784 131.908 21.287 131.046 21.287H129.981V29.6696H134.172V25.4783H146.746V29.6696H150.938V21.287ZM143.603 21.287H137.683C138.137 20.3323 138.364 19.2844 138.364 18.1435V4.52165H143.603V21.287ZM162.816 0.330322C164.842 0.330322 166.571 1.04634 168.003 2.47838C169.435 3.91042 170.151 5.63934 170.151 7.66515V9.76081C170.151 11.7866 169.435 13.5155 168.003 14.9476C166.571 16.3796 164.842 17.0956 162.816 17.0956H157.577V25.4783H153.386V0.330322H162.816ZM165.96 7.66515C165.96 6.79195 165.651 6.05265 165.034 5.44724C164.429 4.83018 163.689 4.52165 162.816 4.52165H157.577V12.9043H162.816C163.689 12.9043 164.429 12.6016 165.034 11.9962C165.651 11.3791 165.96 10.634 165.96 9.76081V7.66515ZM178.546 6.96659C179.664 8.09592 180.398 9.37661 180.747 10.8086H172.609V15H180.747C180.398 16.432 179.664 17.7069 178.546 18.8246C176.905 20.4662 174.926 21.287 172.609 21.287V25.4783C176.078 25.4783 179.041 24.25 181.498 21.7934C183.954 19.3368 185.183 16.3738 185.183 12.9043C185.183 9.43482 183.954 6.47178 181.498 4.0152C179.041 1.55861 176.078 0.330322 172.609 0.330322V4.52165C174.926 4.52165 176.905 5.33663 178.546 6.96659ZM191.826 10.8086H192.874C193.747 10.8086 194.487 10.5059 195.092 9.90052C195.709 9.28347 196.018 8.53834 196.018 7.66515C196.018 6.79195 195.709 6.05265 195.092 5.44724C194.487 4.83018 193.747 4.52165 192.874 4.52165H191.826V10.8086ZM197.066 21.287C197.939 21.287 198.678 20.9843 199.284 20.3788C199.901 19.7618 200.209 19.0167 200.209 18.1435C200.209 17.2703 199.901 16.531 199.284 15.9256C198.678 15.3085 197.939 15 197.066 15H191.826V21.287H197.066ZM199.353 11.1579C200.424 11.4956 201.391 12.0951 202.252 12.9567C203.684 14.3887 204.4 16.1177 204.4 18.1435C204.4 20.1693 203.684 21.8982 202.252 23.3302C200.82 24.7623 199.091 25.4783 197.066 25.4783H187.635V0.330322H192.874C194.9 0.330322 196.629 1.04634 198.061 2.47838C199.493 3.91042 200.209 5.63934 200.209 7.66515C200.209 8.94583 199.924 10.1101 199.353 11.1579ZM206.851 12.9043C206.851 9.43482 208.079 6.47178 210.535 4.0152C212.992 1.55861 215.955 0.330322 219.425 0.330322C222.894 0.330322 225.857 1.55861 228.314 4.0152C230.77 6.47178 231.999 9.43482 231.999 12.9043V25.4783H227.807V21.287H211.042V25.4783H206.851V12.9043ZM227.807 17.0956V12.9043C227.807 10.5874 226.986 8.61402 225.345 6.98406C223.715 5.34245 221.741 4.52165 219.425 4.52165C217.108 4.52165 215.128 5.34245 213.487 6.98406C211.857 8.61402 211.042 10.5874 211.042 12.9043V17.0956H227.807Z" fill="#282A2E"/>
</svg>
