<svg width="232" height="30" viewBox="0 0 232 30" fill="none" xmlns="http://www.w3.org/2000/svg">
<path fill-rule="evenodd" clip-rule="evenodd" d="M12.574 25.478V21.2867C10.2571 21.2867 8.27787 20.4717 6.63627 18.8418C5.00631 17.2002 4.19133 15.2209 4.19133 12.9041C4.19133 10.5872 5.00631 8.61377 6.63627 6.98381C8.27787 5.34221 10.2571 4.52141 12.574 4.52141V0.330078C9.1045 0.330078 6.14146 1.55837 3.68488 4.01495C1.22829 6.47154 0 9.43458 0 12.9041C0 16.3736 1.22829 19.3366 3.68488 21.7932C6.14146 24.2498 9.1045 25.478 12.574 25.478ZM31.7842 25.478H27.5929V4.52141H19.2103V25.478H15.0189V0.330078H31.7842V25.478ZM37.9268 4.01495C35.4703 6.47154 34.242 9.43458 34.242 12.9041V25.478H38.4333V21.2867H55.1986V25.478H59.3899V12.9041C59.3899 9.43458 58.1616 6.47154 55.7051 4.01495C53.2485 1.55837 50.2854 0.330078 46.8159 0.330078C43.3465 0.330078 40.3834 1.55837 37.9268 4.01495ZM55.1986 12.9041V17.0954H38.4333V12.9041C38.4333 10.5872 39.2483 8.61377 40.8782 6.98381C42.5198 5.34221 44.4991 4.52141 46.8159 4.52141C49.1328 4.52141 51.1062 5.34221 52.7362 6.98381C54.3778 8.61377 55.1986 10.5872 55.1986 12.9041ZM79.6562 21.2867H82.7997V29.6694H78.6084V25.478H66.0344V29.6694H61.8431V21.2867H62.9084C63.7699 21.2867 64.5093 20.9782 65.1263 20.3611C65.7317 19.7557 66.0344 19.0164 66.0344 18.1432V0.330078H79.6562V21.2867ZM69.5447 21.2867H75.4649V4.52141H70.2258V18.1432C70.2258 19.2842 69.9987 20.332 69.5447 21.2867ZM88.9401 4.01495C86.4835 6.47154 85.2552 9.43458 85.2552 12.9041V25.478H89.4465V21.2867H106.212V25.478H110.403V12.9041C110.403 9.43458 109.175 6.47154 106.718 4.01495C104.262 1.55837 101.299 0.330078 97.8292 0.330078C94.3597 0.330078 91.3967 1.55837 88.9401 4.01495ZM106.212 12.9041V17.0954H89.4465V12.9041C89.4465 10.5872 90.2615 8.61377 91.8915 6.98381C93.5331 5.34221 95.5123 4.52141 97.8292 4.52141C100.146 4.52141 102.119 5.34221 103.749 6.98381C105.391 8.61377 106.212 10.5872 106.212 12.9041ZM122.287 0.330078C124.313 0.330078 126.042 1.0461 127.474 2.47813C128.906 3.91017 129.622 5.63909 129.622 7.6649V9.76057C129.622 11.7864 128.906 13.5153 127.474 14.9473C126.042 16.3794 124.313 17.0954 122.287 17.0954H117.048V25.478H112.856V0.330078H122.287ZM125.43 7.6649C125.43 6.79171 125.122 6.05241 124.505 5.44699C123.899 4.82994 123.16 4.52141 122.287 4.52141H117.048V12.9041H122.287C123.16 12.9041 123.899 12.6014 124.505 11.9959C125.122 11.3789 125.43 10.6338 125.43 9.76057V7.6649ZM150.938 21.2867H147.794V0.330078H134.172V18.1432C134.172 19.0164 133.87 19.7557 133.264 20.3611C132.647 20.9782 131.908 21.2867 131.046 21.2867H129.981V29.6694H134.172V25.478H146.746V29.6694H150.938V21.2867ZM143.603 21.2867H137.683C138.137 20.332 138.364 19.2842 138.364 18.1432V4.52141H143.603V21.2867ZM162.816 0.330078C164.842 0.330078 166.571 1.0461 168.003 2.47813C169.435 3.91017 170.151 5.63909 170.151 7.6649V9.76057C170.151 11.7864 169.435 13.5153 168.003 14.9473C166.571 16.3794 164.842 17.0954 162.816 17.0954H157.577V25.478H153.386V0.330078H162.816ZM165.96 7.6649C165.96 6.79171 165.651 6.05241 165.034 5.44699C164.429 4.82994 163.689 4.52141 162.816 4.52141H157.577V12.9041H162.816C163.689 12.9041 164.429 12.6014 165.034 11.9959C165.651 11.3789 165.96 10.6338 165.96 9.76057V7.6649ZM178.546 6.96635C179.664 8.09568 180.398 9.37636 180.747 10.8084H172.609V14.9997H180.747C180.398 16.4318 179.664 17.7066 178.546 18.8243C176.905 20.4659 174.926 21.2867 172.609 21.2867V25.478C176.078 25.478 179.041 24.2498 181.498 21.7932C183.954 19.3366 185.183 16.3736 185.183 12.9041C185.183 9.43458 183.954 6.47154 181.498 4.01495C179.041 1.55837 176.078 0.330078 172.609 0.330078V4.52141C174.926 4.52141 176.905 5.33639 178.546 6.96635ZM191.826 10.8084H192.874C193.747 10.8084 194.487 10.5057 195.092 9.90028C195.709 9.28322 196.018 8.5381 196.018 7.6649C196.018 6.79171 195.709 6.05241 195.092 5.44699C194.487 4.82994 193.747 4.52141 192.874 4.52141H191.826V10.8084ZM197.066 21.2867C197.939 21.2867 198.678 20.984 199.284 20.3786C199.901 19.7615 200.209 19.0164 200.209 18.1432C200.209 17.27 199.901 16.5307 199.284 15.9253C198.678 15.3083 197.939 14.9997 197.066 14.9997H191.826V21.2867H197.066ZM199.353 11.1577C200.424 11.4953 201.391 12.0949 202.252 12.9565C203.684 14.3885 204.4 16.1174 204.4 18.1432C204.4 20.169 203.684 21.898 202.252 23.33C200.82 24.762 199.091 25.478 197.066 25.478H187.635V0.330078H192.874C194.9 0.330078 196.629 1.0461 198.061 2.47813C199.493 3.91017 200.209 5.63909 200.209 7.6649C200.209 8.94559 199.924 10.1098 199.353 11.1577ZM206.851 12.9041C206.851 9.43458 208.079 6.47154 210.535 4.01495C212.992 1.55837 215.955 0.330078 219.425 0.330078C222.894 0.330078 225.857 1.55837 228.314 4.01495C230.77 6.47154 231.999 9.43458 231.999 12.9041V25.478H227.807V21.2867H211.042V25.478H206.851V12.9041ZM227.807 17.0954V12.9041C227.807 10.5872 226.986 8.61377 225.345 6.98381C223.715 5.34221 221.741 4.52141 219.425 4.52141C217.108 4.52141 215.128 5.34221 213.487 6.98381C211.857 8.61377 211.042 10.5872 211.042 12.9041V17.0954H227.807Z" fill="white"/>
</svg>
