<svg width="50" height="50" viewBox="0 0 50 50" fill="none" xmlns="http://www.w3.org/2000/svg">
<g clip-path="url(#clip0_270_1638)">
<path d="M50 25C50 38.8125 38.8125 50 25 50C11.1875 50 0 38.8125 0 25C0 11.1875 11.1875 0 25 0C38.8125 0 50 11.1875 50 25Z" fill="url(#paint0_linear_270_1638)"/>
<path d="M35.9274 13.0022C35.5656 13.0183 35.2247 13.1187 34.9218 13.2311H34.9176C34.6104 13.3475 33.1504 13.9338 30.9329 14.8212C28.7155 15.7125 25.8374 16.8689 22.9804 18.0173C17.2748 20.31 11.666 22.5666 11.666 22.5666L11.7333 22.5425C11.7333 22.5425 11.3462 22.663 10.9423 22.928C10.7361 23.0565 10.5089 23.2331 10.3111 23.5102C10.1134 23.7872 9.95347 24.2129 10.0124 24.6505C10.1092 25.3933 10.6141 25.839 10.9759 26.084C11.342 26.3329 11.6912 26.4494 11.6912 26.4494H11.6997L16.9592 28.1398C17.1949 28.8625 18.5624 33.1508 18.8906 34.1386C19.0841 34.7288 19.2735 35.0982 19.5091 35.3793C19.6227 35.5239 19.7573 35.6443 19.9172 35.7407C19.9803 35.7768 20.0477 35.8049 20.115 35.829C20.136 35.8411 20.1571 35.8451 20.1823 35.8491L20.1276 35.8371C20.1444 35.8411 20.1571 35.8531 20.1697 35.8571C20.2118 35.8692 20.2412 35.8732 20.2959 35.8812C21.129 36.1221 21.7981 35.6283 21.7981 35.6283L21.8359 35.6002L24.9412 32.9019L30.1461 36.7124L30.2639 36.7606C31.3495 37.2143 32.4477 36.9613 33.0283 36.5156C33.6132 36.0659 33.8404 35.4917 33.8404 35.4917L33.8783 35.3994L37.9008 15.7366C38.0144 15.2508 38.0439 14.7971 37.9176 14.3554C37.7914 13.9137 37.4674 13.5001 37.0761 13.2793C36.6806 13.0544 36.2893 12.9862 35.9274 13.0022ZM35.818 15.1103C35.8138 15.1745 35.8264 15.1665 35.797 15.2909V15.303L31.8123 34.761C31.7955 34.7891 31.766 34.8493 31.6861 34.9095C31.6019 34.9738 31.5346 35.0139 31.1854 34.8814L24.8192 30.2237L20.9734 33.5684L21.7812 28.6457C21.7812 28.6457 31.7534 19.776 32.1826 19.3945C32.6118 19.0131 32.4687 18.9328 32.4687 18.9328C32.4982 18.467 31.8207 18.7963 31.8207 18.7963L18.7054 26.5497L18.7012 26.5297L12.415 24.51V24.506C12.4107 24.506 12.4023 24.502 12.3981 24.502C12.4023 24.502 12.4318 24.4899 12.4318 24.4899L12.4654 24.4739L12.4991 24.4618C12.4991 24.4618 18.1121 22.2052 23.8177 19.9125C26.6748 18.7641 29.5528 17.6077 31.766 16.7164C33.9793 15.829 35.6161 15.1785 35.7086 15.1424C35.797 15.1103 35.7549 15.1103 35.818 15.1103Z" fill="white" stroke="white" stroke-width="0.4"/>
</g>
<defs>
<linearGradient id="paint0_linear_270_1638" x1="32.3271" y1="7.90208" x2="19.8271" y2="37.0683" gradientUnits="userSpaceOnUse">
<stop stop-color="#37AEE2"/>
<stop offset="1" stop-color="#1E96C8"/>
</linearGradient>
<clipPath id="clip0_270_1638">
<rect width="50" height="50" fill="white"/>
</clipPath>
</defs>
</svg>
