<svg width="50" height="50" viewBox="0 0 50 50" fill="none" xmlns="http://www.w3.org/2000/svg">
<g clip-path="url(#clip0_270_1616)">
<path d="M25 50C38.8071 50 50 38.8071 50 25C50 11.1929 38.8071 0 25 0C11.1929 0 0 11.1929 0 25C0 38.8071 11.1929 50 25 50Z" fill="url(#paint0_linear_270_1616)"/>
<path d="M38.2259 17.5679L38.2177 17.5349C37.5497 14.8344 34.5382 11.9368 31.7726 11.3339L31.7414 11.3275C27.2682 10.4742 22.7325 10.4742 18.2603 11.3275L18.2281 11.3339C15.4635 11.9368 12.4519 14.8346 11.783 17.5349L11.7756 17.5679C10.9498 21.3391 10.9498 25.1637 11.7756 28.9349L11.783 28.9679C12.4234 31.5531 15.2106 34.3177 17.873 35.078V38.0924C17.873 39.1835 19.2026 39.7194 19.9587 38.932L23.0129 35.7573C23.6754 35.7943 24.3382 35.815 25.0008 35.815C27.2524 35.815 29.5052 35.602 31.7413 35.1754L31.7725 35.169C34.5381 34.5662 37.5496 31.6683 38.2176 28.968L38.2258 28.935C39.0516 25.1637 39.0516 21.3393 38.2259 17.5679ZM35.8088 28.3881C35.3628 30.15 33.0763 32.3402 31.2595 32.7449C28.8811 33.1972 26.4837 33.3905 24.0888 33.3242C24.0411 33.3228 23.9953 33.3414 23.9622 33.3755C23.6223 33.7244 21.7322 35.6648 21.7322 35.6648L19.3604 38.0992C19.1869 38.28 18.8822 38.1569 18.8822 37.9074V32.9136C18.8822 32.8311 18.8233 32.7611 18.7423 32.7451C18.7418 32.7449 18.7414 32.7449 18.7409 32.7448C16.9241 32.3401 14.6384 30.1499 14.1916 28.388C13.4483 24.9792 13.4483 21.5236 14.1916 18.1148C14.6384 16.353 16.9241 14.1627 18.7409 13.7581C22.8948 12.968 27.1065 12.968 31.2596 13.7581C33.0772 14.1627 35.3629 16.353 35.8089 18.1148C36.5529 21.5237 36.5529 24.9793 35.8088 28.3881Z" fill="white"/>
<path d="M28.9492 30.6934C28.6699 30.6085 28.4038 30.5516 28.1564 30.4492C25.5948 29.3864 23.2374 28.0153 21.3701 25.9136C20.3082 24.7185 19.477 23.3692 18.7745 21.9412C18.4413 21.2641 18.1605 20.5605 17.8743 19.8613C17.6134 19.2238 17.9978 18.5652 18.4024 18.0847C18.7822 17.6338 19.271 17.2889 19.8003 17.0345C20.2134 16.8361 20.6208 16.9505 20.9226 17.3006C21.5747 18.0577 22.1739 18.8534 22.6589 19.7309C22.9572 20.2706 22.8754 20.9304 22.3347 21.2977C22.2032 21.387 22.0835 21.4918 21.9611 21.5926C21.8537 21.681 21.7527 21.7703 21.6791 21.8899C21.5446 22.1087 21.5382 22.367 21.6247 22.605C22.2914 24.4371 23.4151 25.862 25.2594 26.6294C25.5545 26.7522 25.8508 26.8951 26.1908 26.8555C26.7602 26.789 26.9445 26.1644 27.3436 25.8381C27.7335 25.5193 28.2319 25.5151 28.652 25.7809C29.0722 26.0469 29.4794 26.3323 29.8843 26.6208C30.2817 26.904 30.6773 27.1809 31.0438 27.5038C31.3964 27.8143 31.5178 28.2215 31.3192 28.6427C30.956 29.4143 30.4271 30.056 29.6646 30.4658C29.4492 30.5812 29.192 30.6186 28.9492 30.6934C29.192 30.6186 28.6699 30.6085 28.9492 30.6934Z" fill="white"/>
<path d="M25.0023 16.15C28.3527 16.244 31.1048 18.4675 31.6945 21.78C31.795 22.3444 31.8308 22.9214 31.8755 23.4943C31.8943 23.7353 31.7578 23.9642 31.4979 23.9674C31.2293 23.9706 31.1085 23.7458 31.0909 23.5051C31.0565 23.0283 31.0325 22.5493 30.9668 22.0767C30.62 19.5807 28.6298 17.5157 26.1454 17.0727C25.7715 17.006 25.3891 16.9885 25.0103 16.9487C24.7709 16.9236 24.4574 16.9092 24.4044 16.6115C24.36 16.362 24.5705 16.1634 24.8081 16.1506C24.8725 16.1468 24.9374 16.1498 25.0023 16.15C28.3529 16.244 24.9374 16.1498 25.0023 16.15Z" fill="white"/>
<path d="M30.1039 22.7487C30.0983 22.7906 30.0955 22.8889 30.0709 22.9815C29.982 23.3178 29.4719 23.3599 29.3546 23.0205C29.3197 22.9198 29.3146 22.8052 29.3144 22.6968C29.3132 21.9872 29.159 21.2782 28.8011 20.6608C28.4332 20.0261 27.8711 19.4928 27.212 19.1698C26.8134 18.9747 26.3824 18.8533 25.9455 18.7812C25.7546 18.7495 25.5616 18.7305 25.3697 18.7037C25.1372 18.6714 25.013 18.5233 25.0241 18.2942C25.0344 18.0795 25.1913 17.9249 25.4253 17.9383C26.1941 17.9819 26.9369 18.1483 27.6206 18.5102C29.0106 19.2464 29.8048 20.4083 30.0366 21.96C30.0471 22.0304 30.0639 22.0999 30.0692 22.1704C30.0823 22.3445 30.0906 22.5188 30.1039 22.7487C30.0983 22.7904 30.0906 22.5188 30.1039 22.7487Z" fill="white"/>
<path d="M28.0109 22.6759C27.7306 22.6809 27.5806 22.5257 27.5516 22.2688C27.5316 22.0897 27.5156 21.9081 27.4728 21.7337C27.3886 21.3902 27.2061 21.0721 26.9172 20.8616C26.7809 20.7623 26.6263 20.6899 26.4645 20.6431C26.2589 20.5836 26.0453 20.6 25.8403 20.5498C25.6175 20.4952 25.4943 20.3147 25.5293 20.1058C25.5612 19.9156 25.7461 19.7672 25.9541 19.7823C27.2531 19.8761 28.1815 20.5476 28.314 22.0769C28.3235 22.1849 28.3344 22.2988 28.3105 22.4022C28.2693 22.5787 28.1384 22.6673 28.0109 22.6759C28.1384 22.6673 27.7305 22.6808 28.0109 22.6759Z" fill="white"/>
<path d="M28.9522 30.693C28.6718 30.6078 29.196 30.6179 28.9522 30.693V30.693Z" fill="white"/>
<path d="M25.0168 16.1567C25.0141 16.1567 25.0114 16.1563 25.0087 16.1563C25.0061 16.1561 25.0095 16.1563 25.0168 16.1567Z" fill="white"/>
<path d="M25.0078 16.1562C25.0106 16.1562 25.0134 16.1565 25.0162 16.1565C25.2021 16.1632 28.2264 16.2465 25.0078 16.1562Z" fill="white"/>
<path d="M30.0935 22.7496C30.0798 22.5201 30.0878 22.7912 30.0935 22.7496V22.7496Z" fill="white"/>
<path d="M28.0038 22.6677C28.0081 22.6674 28.0122 22.6647 28.0163 22.6641C28.0048 22.6641 27.987 22.6644 27.9688 22.6652C27.9806 22.6656 27.9914 22.6678 28.0038 22.6677Z" fill="white"/>
<path d="M28.0067 22.6666C27.9941 22.6668 27.983 22.6645 27.9709 22.6641C27.9104 22.6661 27.8479 22.6701 28.0067 22.6666Z" fill="white"/>
<path d="M28.0203 22.6641C28.016 22.6646 28.0119 22.6673 28.0078 22.6676C28.0398 22.665 28.037 22.6641 28.0203 22.6641Z" fill="white"/>
</g>
<defs>
<linearGradient id="paint0_linear_270_1616" x1="32.3271" y1="7.90208" x2="19.8271" y2="37.0683" gradientUnits="userSpaceOnUse">
<stop stop-color="#7E32CA"/>
<stop offset="1" stop-color="#6F3FAA"/>
</linearGradient>
<clipPath id="clip0_270_1616">
<rect width="50" height="50" fill="white"/>
</clipPath>
</defs>
</svg>
