<svg width="50" height="50" viewBox="0 0 50 50" fill="none" xmlns="http://www.w3.org/2000/svg">
<g clip-path="url(#clip0_270_1633)">
<path d="M25 50C38.8071 50 50 38.8071 50 25C50 11.1929 38.8071 0 25 0C11.1929 0 0 11.1929 0 25C0 38.8071 11.1929 50 25 50Z" fill="url(#paint0_linear_270_1633)"/>
<path d="M24.2978 10.587C16.6778 10.9495 10.6646 17.2956 10.6876 24.924C10.6946 27.2475 11.2555 29.4405 12.2452 31.3786L10.7259 38.753C10.6438 39.152 11.0036 39.5014 11.3999 39.4074L18.6259 37.6955C20.4825 38.6204 22.5677 39.1544 24.7746 39.1881C32.563 39.3071 39.0569 33.1231 39.3 25.3376C39.5599 16.9921 32.6722 10.1881 24.2978 10.587ZM32.9202 32.8027C30.8041 34.9188 27.9902 36.0844 24.9973 36.0844C23.245 36.0844 21.5671 35.6911 20.0104 34.9158L19.0044 34.4144L14.5737 35.464L15.5062 30.937L15.0106 29.966C14.2024 28.3834 13.7926 26.6723 13.7926 24.8797C13.7926 21.8867 14.9582 19.0731 17.0743 16.9568C19.1715 14.8594 22.0312 13.6752 24.9975 13.6752C27.9901 13.6752 30.804 14.8407 32.9201 16.9568C35.0362 19.0729 36.2017 21.8868 36.2017 24.8794C36.2019 27.8458 35.0175 30.7054 32.9202 32.8027Z" fill="white"/>
<path d="M31.9358 27.9772L29.1639 27.1814C28.7997 27.077 28.4071 27.1804 28.1416 27.4509L27.4637 28.1414C27.1779 28.4328 26.7444 28.5262 26.366 28.3732C25.0548 27.8425 22.2965 25.39 21.5925 24.1636C21.389 23.8097 21.4227 23.3675 21.6723 23.0443L22.2639 22.2788C22.4957 21.979 22.5446 21.5759 22.3913 21.2293L21.2252 18.5918C20.9459 17.9601 20.1387 17.7761 19.6113 18.2222C18.8377 18.8766 17.9198 19.8707 17.8084 20.9722C17.6116 22.9143 18.4446 25.3623 21.5938 28.3018C25.2321 31.6981 28.1459 32.1464 30.0433 31.687C31.1194 31.4265 31.9793 30.3818 32.5217 29.5262C32.8919 28.9425 32.5993 28.1679 31.9358 27.9772Z" fill="white"/>
</g>
<defs>
<linearGradient id="paint0_linear_270_1633" x1="32.3271" y1="7.90208" x2="19.8271" y2="37.0683" gradientUnits="userSpaceOnUse">
<stop stop-color="#8DD64D"/>
<stop offset="1" stop-color="#75B73B"/>
</linearGradient>
<clipPath id="clip0_270_1633">
<rect width="50" height="50" fill="white"/>
</clipPath>
</defs>
</svg>
